<svg width="40" height="40" viewBox="0 0 512 512" xml:space="preserve" xmlns="http://www.w3.org/2000/svg">
            <path d="m452 351.94c-5.52 0-10 4.48-10 10s4.48 10 10 10 10-4.48 10-10-4.48-10-10-10z"></path>
            <path d="m186 351.94c-5.52 0-10 4.48-10 10s4.48 10 10 10 10-4.48 10-10-4.48-10-10-10z"></path>
            <path d="m191.45 391.67c-5.499-0.347-10.259 3.85-10.6 9.361-1.546 24.917-22.772 46.806-49.377 50.916-5.457 0.845-9.198 5.953-8.355 11.411 0.845 5.468 5.964 9.198 11.41 8.355 35.674-5.512 64.17-35.366 66.283-69.443 0.342-5.513-3.85-10.258-9.361-10.6z"></path>
            <path d="m457.29 391.69c-5.522-0.355-10.26 3.845-10.604 9.356-1.552 24.84-22.721 46.711-49.24 50.875-5.456 0.856-9.185 5.974-8.328 11.43 0.865 5.509 6.036 9.182 11.43 8.328 35.561-5.583 63.977-35.412 66.1-69.385 0.343-5.512-3.846-10.259-9.358-10.604z"></path>
            <path d="m475.37 305.87c-15.848-10.688-28.773-15.169-40.7-14.106-11.129 0.992-18.944 6.608-25.84 11.563-5.598 4.023-10.219 7.331-16.164 8.311-79.339-58.449-126.67-188.54-126.67-281.7 0-5.522-4.478-10-10-10s-10 4.478-10 10c0 12.697-0.887 26.085-2.606 39.882-9.751-18.293-25.463-40.123-49.195-53.822v-1e-3c-46.088-26.604-103.09-12.002-105.49-11.368-2.576 0.681-4.774 2.36-6.107 4.668-1.332 2.308-1.688 5.052-0.99 7.624 0.652 2.399 16.502 59.073 62.592 85.678 22.241 12.838 47.028 16.221 66.982 16.221 8.984 0 16.982-0.687 23.333-1.504-18.534 75.01-58.763 152.83-115.18 194.32-13.705-2.254-22.199-18.109-42.012-19.875-11.925-1.067-24.852 3.419-40.7 14.106-23.278 15.698-36.629 47.07-36.629 86.071 0 67.664 54.42 120 123 120 68.763 0 123-52.505 123-120 0-39.001-13.351-70.373-36.629-86.071-15.237-10.275-27.774-14.798-39.313-14.189 42.587-48.697 71.83-115.98 85.945-178.41 14.154 62.546 43.441 129.76 85.98 178.41-11.548-0.626-24.098 3.9-39.354 14.187-23.278 15.698-36.629 47.07-36.629 86.071 0 67.664 54.42 120 123 120 68.763 0 123-52.505 123-120 0-39.001-13.351-70.373-36.629-86.071zm-321.17-220.59c-28.116-16.229-43.379-47.267-49.716-63.359 17.08-2.579 51.491-4.893 79.718 11.401v-1e-3c28.12 16.232 43.382 47.608 49.715 63.875-17.128 2.405-51.502 4.372-79.717-11.916zm43.99 237.17c25.101 16.927 27.811 54.235 27.811 69.489 0 57.008-45.937 100-103 100-57.164 0-103-43.109-103-100 0-15.254 2.71-52.562 27.811-69.489 11.681-7.877 19.526-10.785 25.775-10.785 15.505 0 24.273 20.274 49.414 20.274 14.283 0 23.831-6.86 31.503-12.373 11.49-8.256 19.079-13.71 43.686 2.884zm190.81 169.49c-57.164 0-103-43.109-103-100 0-15.254 2.71-52.562 27.811-69.489 11.681-7.877 19.526-10.785 25.775-10.785 6.916 0 11.876 3.564 17.911 7.901 7.672 5.513 17.22 12.373 31.503 12.373s23.831-6.86 31.503-12.373c11.49-8.256 19.079-13.71 43.687 2.884 25.1 16.927 27.81 54.235 27.81 69.489 0 57.008-45.937 100-103 100z"></path>
        </svg>