<svg width="40" height="40" viewBox="0 0 512 512" xmlns="http://www.w3.org/2000/svg">
            <g>
            <circle cx="362" cy="150" r="15"></circle>
            <circle cx="304.068" cy="92.068" r="15"></circle>
            <circle cx="419.926" cy="207.926" r="15"></circle>
            <path d="m467 0h-210c-24.813 0-45 20.187-45 45v83.993c-5.748-2.6-12.031-3.979-18.529-3.979-12.02 0-23.321 4.681-31.82 13.181l-148.492 148.493c-17.544 17.546-17.544 46.094 0 63.64l148.493 148.492c8.499 8.5 19.8 13.181 31.82 13.181s23.32-4.681 31.819-13.181l148.493-148.492c13.584-13.586 16.642-33.764 9.189-50.327h84.027c24.813 0 45-20.187 45-45v-210.001c0-24.813-20.187-45-45-45zm-114.43 329.114-148.492 148.492c-2.833 2.833-6.6 4.394-10.606 4.394-4.007 0-7.773-1.561-10.607-4.394l-148.493-148.492c-5.849-5.849-5.849-15.365 0-21.214l148.493-148.492c2.833-2.833 6.6-4.394 10.607-4.394 4.006 0 7.773 1.561 10.606 4.394l148.492 148.492c5.849 5.849 5.849 15.366 0 21.214zm129.43-74.114c0 8.271-6.729 15-15 15h-109.904l-115.096-115.095v-109.905c0-8.271 6.729-15 15-15h210c8.271 0 15 6.729 15 15z"></path>
            <circle cx="204.078" cy="244.261" r="15"></circle>
            <circle cx="119.225" cy="329.114" r="15"></circle>
            <circle cx="161.651" cy="286.688" r="15"></circle>
            <circle cx="267.717" cy="307.901" r="15"></circle>
            <circle cx="182.864" cy="392.754" r="15"></circle>
            <circle cx="225.291" cy="350.327" r="15"></circle>
            </g>
        </svg>