<svg width="40" height="40" viewBox="0 0 512 512" xmlns="http://www.w3.org/2000/svg">
            <g>
            <path d="m49.733 246.295c-4.143 0-7.5 3.357-7.5 7.5v29.255c0 4.143 3.358 7.5 7.5 7.5h36.126c4.143 0 7.5-3.357 7.5-7.5v-89.218c0-4.143-3.358-7.5-7.5-7.5-4.143 0-7.5 3.357-7.5 7.5v81.718h-21.126v-21.755c0-4.142-3.358-7.5-7.5-7.5z"></path>
            <path d="m148.988 290.55c4.143 0 7.5-3.357 7.5-7.5v-89.218c0-4.143-3.358-7.5-7.5-7.5h-33.126c-4.143 0-7.5 3.357-7.5 7.5v89.218c0 4.143 3.358 7.5 7.5 7.5 4.143 0 7.5-3.357 7.5-7.5v-22.571h18.125v22.571c.001 4.142 3.358 7.5 7.501 7.5zm-25.626-45.071v-44.147h18.125v44.147z"></path>
            <path d="m210.116 201.332c4.143 0 7.5-3.357 7.5-7.5s-3.357-7.5-7.5-7.5h-31.126c-4.143 0-7.5 3.357-7.5 7.5v89.218c0 4.143 3.357 7.5 7.5 7.5h31.126c4.143 0 7.5-3.357 7.5-7.5s-3.357-7.5-7.5-7.5h-23.626v-74.218z"></path>
            <path d="m406.76 283.05v-89.218c0-4.143-3.357-7.5-7.5-7.5h-34.126c-4.143 0-7.5 3.357-7.5 7.5v89.218c0 4.143 3.358 7.5 7.5 7.5h34.126c4.142 0 7.5-3.358 7.5-7.5zm-15-7.5h-19.125v-74.218h19.125z"></path>
            <path d="m275.738 186.675c-3.955-1.237-8.162.958-9.403 4.91l-12.352 39.355h-7.995v-37.109c0-4.143-3.358-7.5-7.5-7.5-4.143 0-7.5 3.357-7.5 7.5v89.218c0 4.143 3.357 7.5 7.5 7.5s7.5-3.357 7.5-7.5v-37.109h7.995l12.352 39.355c1.006 3.204 3.964 5.256 7.154 5.256.744 0 1.501-.111 2.248-.346 3.952-1.241 6.151-5.45 4.91-9.402l-13.296-42.363 13.296-42.363c1.242-3.951-.957-8.16-4.909-9.402z"></path>
            <path d="m343.63 252.979v-59.147c0-4.143-3.358-7.5-7.5-7.5h-34.126c-4.143 0-7.5 3.357-7.5 7.5v89.218c0 4.143 3.358 7.5 7.5 7.5s7.5-3.357 7.5-7.5v-22.571h26.626c4.143 0 7.5-3.358 7.5-7.5zm-15-7.5h-19.125v-44.147h19.125z"></path>
            <path d="m445.203 290.55c4.143 0 7.5-3.357 7.5-7.5v-81.718h9.563c4.143 0 7.5-3.357 7.5-7.5s-3.358-7.5-7.5-7.5h-34.126c-4.143 0-7.5 3.357-7.5 7.5s3.357 7.5 7.5 7.5h9.563v81.718c0 4.142 3.358 7.5 7.5 7.5z"></path>
            <path d="m310.634 87.859c-.877-2.717-3.221-4.7-6.045-5.115l-28.953-4.259-12.905-26.262c-1.259-2.562-3.863-4.187-6.718-4.192h-.014c-2.85 0-5.453 1.615-6.72 4.169l-12.996 26.215-28.968 4.157c-2.826.405-5.177 2.38-6.064 5.094s-.156 5.695 1.885 7.691l20.919 20.462-4.998 28.829c-.487 2.812.664 5.658 2.971 7.341 2.306 1.683 5.367 1.91 7.897.585l25.927-13.57 25.878 13.663c1.101.581 2.303.867 3.501.867 1.551 0 3.095-.48 4.399-1.425 2.313-1.674 3.475-4.516 2.997-7.33l-4.897-28.848 20.993-20.388c2.047-1.988 2.788-4.967 1.911-7.684zm-36.184 20.06c-1.771 1.72-2.582 4.201-2.169 6.635l3.013 17.753-15.924-8.408c-1.096-.578-2.299-.867-3.502-.867-1.194 0-2.389.285-3.478.855l-15.957 8.352 3.076-17.742c.422-2.433-.381-4.917-2.146-6.643l-12.873-12.592 17.827-2.559c2.443-.351 4.558-1.881 5.654-4.093l7.998-16.134 7.943 16.163c1.089 2.216 3.198 3.753 5.64 4.112l17.817 2.621z"></path>
            <path d="m8.921 142.104c.085.003.168.004.252.004 4.027 0 7.358-3.197 7.491-7.253.57-17.349 1.155-30.284 1.498-37.263 17.605-3.215 74.422-12.812 149.347-17.65 3.082-.199 5.727-2.267 6.663-5.209 2.379-7.472 5.783-14.588 10.118-21.153 2.283-3.456 1.332-8.108-2.125-10.391-3.455-2.283-8.109-1.331-10.392 2.125-4.144 6.273-7.564 12.978-10.201 19.988-88.838 6.045-151.446 18.536-152.08 18.664-3.344.675-5.812 3.521-6.005 6.928-.009.162-.93 16.566-1.815 43.468-.136 4.14 3.109 7.606 7.249 7.742z"></path>
            <path d="m207.34 30.082c14.326-9.865 31.13-15.08 48.598-15.08 37.528 0 70.387 24.001 81.764 59.723.938 2.942 3.582 5.01 6.664 5.208 74.985 4.836 131.855 14.442 149.47 17.659.302 6.147.791 16.915 1.293 31.235.142 4.05 3.47 7.237 7.49 7.237.089 0 .178-.001.268-.005 4.14-.145 7.378-3.618 7.233-7.758-.814-23.276-1.601-37.27-1.608-37.409-.193-3.406-2.661-6.253-6.005-6.928-.635-.128-63.297-12.631-152.202-18.672-14.717-39.262-52.01-65.29-94.367-65.29-20.52 0-40.267 6.13-57.106 17.726-3.411 2.35-4.273 7.019-1.923 10.431 2.349 3.411 7.018 4.273 10.431 1.923z"></path>
            <path d="m511.17 164.632c-.094-4.083-3.433-7.328-7.495-7.328-.058 0-.116.001-.175.002-4.141.095-7.421 3.529-7.326 7.67 1.153 50.296 1.658 126.144-2.333 204.771-23.986 4.371-120.79 20.564-237.841 20.564-4.934 0-9.951-.028-14.914-.086h-.088c-4.102 0-7.45 3.302-7.498 7.414-.047 4.143 3.273 7.538 7.414 7.586 5.021.057 10.096.086 15.086.086 26.153 0 51.312-.801 74.9-2.096.983 9.958 1.446 24.397-1.13 40.335-67.347 8.951-129.599 2.328-147.663-.001-2.576-15.948-2.107-30.401-1.13-40.322 6.238.342 12.584.648 19.029.914.104.004.21.006.314.006 3.999 0 7.321-3.158 7.487-7.191.171-4.139-3.046-7.632-7.185-7.802-91.154-3.759-162.37-15.739-182.464-19.406-3.912-77.069-3.49-151.426-2.423-200.742.09-4.141-3.194-7.57-7.336-7.66-4.112-.116-7.571 3.195-7.66 7.336-1.101 50.826-1.518 128.125 2.747 207.745.183 3.415 2.653 6.274 6.006 6.95.718.145 65.247 13.002 156.503 18.952-1.142 12.051-1.56 29.937 2.349 49.381.617 3.074 3.082 5.439 6.178 5.93 1.18.187 12.363 1.92 30.269 3.397-.391 9.428-.782 26.493.387 43.965.266 3.963 3.562 6.999 7.476 6.999.169 0 .339-.005.509-.017 4.133-.276 7.259-3.852 6.983-7.984-1.095-16.364-.741-32.723-.376-41.911 10.973.639 23.534 1.084 37.224 1.083 11.987 0 24.841-.342 38.252-1.194.367 9.158.729 25.568-.373 42.022-.276 4.133 2.85 7.708 6.983 7.984.171.012.34.017.509.017 3.913 0 7.21-3.037 7.476-6.999 1.178-17.604.772-34.796.378-44.178 8.858-.804 17.898-1.845 27.038-3.168 3.14-.455 5.653-2.835 6.278-5.945 3.906-19.434 3.497-37.3 2.348-49.395 91.391-5.965 155.791-18.77 156.625-18.938 3.353-.676 5.823-3.535 6.006-6.95 4.347-81.187 3.843-159.986 2.656-211.796z"></path>
            <path d="m255.999 320.318c-12.408 0-22.502 10.092-22.502 22.497 0 12.404 10.094 22.496 22.502 22.496s22.502-10.092 22.502-22.496c0-12.405-10.094-22.497-22.502-22.497zm0 29.993c-4.136 0-7.501-3.362-7.501-7.496s3.365-7.497 7.501-7.497 7.501 3.363 7.501 7.497-3.365 7.496-7.501 7.496z"></path>
            <path d="m117.924 362.311c12.408 0 22.502-10.092 22.502-22.496 0-12.405-10.094-22.497-22.502-22.497s-22.503 10.092-22.503 22.497 10.095 22.496 22.503 22.496zm0-29.993c4.136 0 7.501 3.363 7.501 7.497s-3.365 7.496-7.501 7.496c-4.137 0-7.502-3.362-7.502-7.496s3.365-7.497 7.502-7.497z"></path>
            <path d="m393.953 362.311c12.408 0 22.503-10.092 22.503-22.496 0-12.405-10.095-22.497-22.503-22.497s-22.502 10.092-22.502 22.497 10.094 22.496 22.502 22.496zm0-29.993c4.137 0 7.502 3.363 7.502 7.497s-3.365 7.496-7.502 7.496c-4.136 0-7.501-3.362-7.501-7.496s3.365-7.497 7.501-7.497z"></path>
            <path d="m117.924 153.931c12.408 0 22.502-10.092 22.502-22.496 0-12.405-10.094-22.497-22.502-22.497s-22.503 10.092-22.503 22.497 10.095 22.496 22.503 22.496zm0-29.993c4.136 0 7.501 3.363 7.501 7.497s-3.365 7.496-7.501 7.496c-4.137 0-7.502-3.362-7.502-7.496s3.365-7.497 7.502-7.497z"></path>
            <path d="m393.953 108.938c-12.408 0-22.502 10.092-22.502 22.497 0 12.404 10.094 22.496 22.502 22.496s22.503-10.092 22.503-22.496c-.001-12.405-10.096-22.497-22.503-22.497zm0 29.993c-4.136 0-7.501-3.362-7.501-7.496s3.365-7.497 7.501-7.497c4.137 0 7.502 3.363 7.502 7.497s-3.365 7.496-7.502 7.496z"></path>
            <path d="m124.252 43.351c1.239 2.803 3.985 4.471 6.864 4.471 1.013 0 2.042-.206 3.027-.642 3.789-1.675 5.503-6.103 3.829-9.892l-14.5-32.817c-1.676-3.789-6.107-5.504-9.892-3.829-3.789 1.675-5.503 6.103-3.829 9.892z"></path>
            <path d="m35.099 32.996 27.592 22.286c1.388 1.12 3.054 1.665 4.708 1.665 2.189 0 4.358-.953 5.84-2.787 2.603-3.223 2.1-7.944-1.122-10.548l-27.592-22.285c-3.224-2.602-7.945-2.099-10.548 1.122-2.602 3.222-2.099 7.944 1.122 10.547z"></path>
            <path d="m377.855 47.18c.985.436 2.015.642 3.027.642 2.879 0 5.626-1.668 6.864-4.471l14.501-32.817c1.674-3.789-.04-8.217-3.829-9.892-3.784-1.673-8.218.041-9.892 3.829l-14.501 32.817c-1.673 3.789.041 8.217 3.83 9.892z"></path>
            <path d="m444.599 56.947c1.654 0 3.32-.545 4.708-1.665l27.592-22.286c3.222-2.604 3.725-7.325 1.122-10.548-2.603-3.222-7.324-3.724-10.548-1.122l-27.592 22.286c-3.222 2.604-3.725 7.325-1.122 10.548 1.482 1.834 3.651 2.787 5.84 2.787z"></path>
            <path d="m134.144 421.64c-3.785-1.672-8.218.041-9.892 3.829l-14.501 32.817c-1.674 3.789.04 8.217 3.829 9.892.985.436 2.015.642 3.027.642 2.879 0 5.626-1.668 6.864-4.471l14.501-32.817c1.675-3.789-.039-8.217-3.828-9.892z"></path>
            <path d="m62.692 413.538-27.592 22.286c-3.222 2.603-3.725 7.325-1.122 10.548 1.482 1.834 3.651 2.787 5.84 2.787 1.654 0 3.32-.545 4.708-1.665l27.592-22.286c3.222-2.603 3.725-7.325 1.122-10.548-2.604-3.223-7.324-3.725-10.548-1.122z"></path>
            <path d="m387.747 425.469c-1.676-3.789-6.107-5.503-9.892-3.829-3.789 1.675-5.503 6.103-3.829 9.892l14.501 32.817c1.239 2.803 3.985 4.471 6.864 4.471 1.013 0 2.042-.206 3.027-.642 3.789-1.675 5.503-6.103 3.829-9.892z"></path>
            <path d="m476.899 435.824-27.592-22.286c-3.223-2.603-7.945-2.099-10.548 1.122-2.603 3.223-2.1 7.944 1.122 10.548l27.592 22.286c1.388 1.12 3.054 1.665 4.708 1.665 2.189 0 4.358-.953 5.84-2.787 2.603-3.223 2.1-7.945-1.122-10.548z"></path>
            <path d="m178.981 132.434c0 4.142 3.359 7.5 7.504 7.5 4.144 0 7.503-3.358 7.503-7.5s-3.359-7.5-7.503-7.5c-4.145 0-7.504 3.358-7.504 7.5z"></path>
            <path d="m333.011 132.434c0-4.142-3.359-7.5-7.503-7.5s-7.504 3.358-7.504 7.5 3.359 7.5 7.504 7.5c4.144.001 7.503-3.357 7.503-7.5z"></path>
            <path d="m178.981 340.813c0 4.142 3.359 7.5 7.504 7.5 4.144 0 7.503-3.358 7.503-7.5s-3.359-7.5-7.503-7.5c-4.145 0-7.504 3.358-7.504 7.5z"></path>
            <path d="m318.004 340.813c0 4.142 3.359 7.5 7.504 7.5 4.144 0 7.503-3.358 7.503-7.5s-3.359-7.5-7.503-7.5c-4.145 0-7.504 3.358-7.504 7.5z"></path>
            </g>
        </svg>