<svg width="40" height="40" xmlns="http://www.w3.org/2000/svg" viewBox="0 0 512 512">
            <path d="M176,16a72.021,72.021,0,0,0-71.63,79.312A72.079,72.079,0,0,0,65.192,173.1a104.023,104.023,0,0,0,0,165.808,72.079,72.079,0,0,0,39.178,77.784A72,72,0,1,0,248,424V88A72.081,72.081,0,0,0,176,16Zm32,88h24V320a32.036,32.036,0,0,1-32-32v-8a8,8,0,0,0-16,0v8a48.055,48.055,0,0,0,48,48v88a56,56,0,0,1-112,0c0-.6.024-1.188.042-1.782a72.045,72.045,0,0,0,86.643-56.5,8,8,0,1,0-15.71-3.029,56.031,56.031,0,0,1-74.939,41.645l-.007,0-.009,0a56.086,56.086,0,0,1-34.138-66.781,8,8,0,0,0-3.239-8.672,88.032,88.032,0,0,1,0-145.744,8,8,0,0,0,3.239-8.672,56.086,56.086,0,0,1,34.138-66.781l.009,0,.007,0a56.031,56.031,0,0,1,74.939,41.646,8,8,0,1,0,15.71-3.03,72.045,72.045,0,0,0-86.643-56.5C120.024,89.188,120,88.6,120,88a56,56,0,0,1,112,0H208a8,8,0,0,0,0,16Z"></path>
            <path d="M200,184a8,8,0,0,0-8,8v8a32,32,0,0,1-64,0v-8a8,8,0,0,0-16,0v8a48.07,48.07,0,0,0,40,47.321V248a32.036,32.036,0,0,1-32,32h-8a8,8,0,0,0,0,16h8a48.055,48.055,0,0,0,48-48v-.679A48.07,48.07,0,0,0,208,200v-8A8,8,0,0,0,200,184Z"></path>
            <path d="M496,256a103.975,103.975,0,0,0-41.192-82.9A72.079,72.079,0,0,0,415.63,95.312,72,72,0,1,0,272,88V424a72,72,0,1,0,143.63-7.312A72.079,72.079,0,0,0,454.808,338.9,103.974,103.974,0,0,0,496,256Zm-54.643,72.871a8,8,0,0,0-3.239,8.673,56.086,56.086,0,0,1-34.138,66.781l-.009,0-.007,0a56.031,56.031,0,0,1-74.939-41.645,8,8,0,1,0-15.71,3.029,72.045,72.045,0,0,0,86.643,56.5c.018.594.042,1.187.042,1.782a56,56,0,0,1-112,0V336a48.055,48.055,0,0,0,48-48v-8a8,8,0,0,0-16,0v8a32.036,32.036,0,0,1-32,32V104h24a8,8,0,0,0,0-16H288a56,56,0,0,1,112,0c0,.595-.024,1.188-.042,1.782a72.045,72.045,0,0,0-86.643,56.5,8,8,0,1,0,15.71,3.03,56.031,56.031,0,0,1,74.939-41.646l.007,0,.009,0a56.087,56.087,0,0,1,34.138,66.782,8,8,0,0,0,3.239,8.672,88.03,88.03,0,0,1,0,145.742Z"></path>
            <path d="M408,280h-8a32.036,32.036,0,0,1-32-32v-.679A48.07,48.07,0,0,0,408,200v-8a8,8,0,0,0-16,0v8a32,32,0,0,1-64,0v-8a8,8,0,0,0-16,0v8a48.07,48.07,0,0,0,40,47.321V248a48.055,48.055,0,0,0,48,48h8a8,8,0,0,0,0-16Z"></path>
        </svg>