<svg width="40" height="40" xmlns="http://www.w3.org/2000/svg" viewBox="0 0 128 128">
            <g>
            <path d="M126.447,49.915A63.426,63.426,0,0,0,118.1,29.806,64.4,64.4,0,0,0,98.186,9.892,63.371,63.371,0,0,0,78.073,1.553a64.866,64.866,0,0,0-28.146,0,63.386,63.386,0,0,0-20.113,8.34A64.386,64.386,0,0,0,9.9,29.8,63.44,63.44,0,0,0,1.552,49.917a64.621,64.621,0,0,0,0,28.155A63.212,63.212,0,0,0,9.9,98.194a64.392,64.392,0,0,0,19.9,19.9,63.209,63.209,0,0,0,20.125,8.349,64.56,64.56,0,0,0,28.146,0A63.231,63.231,0,0,0,98.2,118.1a64.385,64.385,0,0,0,19.9-19.9,63.209,63.209,0,0,0,8.351-20.126,64.61,64.61,0,0,0,0-28.157ZM114,72.95V55.044l9.388-2.556a59.924,59.924,0,0,1,0,23.017Zm.135-42.777-8.446,4.832L93.025,22.344l4.837-8.455A60.942,60.942,0,0,1,114.132,30.173ZM64,3.5A60.939,60.939,0,0,1,75.507,4.616L72.953,14H55.047L52.493,4.615A61.013,61.013,0,0,1,64,3.5ZM30.176,13.865,35,22.293,22.339,34.953,13.9,30.125A60.886,60.886,0,0,1,30.176,13.865ZM4.615,75.5a59.966,59.966,0,0,1,0-23.015l9.393,2.556v17.9ZM13.9,97.869l8.425-4.821,12.661,12.661-4.818,8.417A60.936,60.936,0,0,1,13.9,97.869Zm38.6,25.514,2.554-9.393H72.953l2.555,9.393A61.469,61.469,0,0,1,52.493,123.383ZM97.872,114.1l-4.83-8.443L105.7,93l8.432,4.824A60.919,60.919,0,0,1,97.872,114.1Zm18.151-19.232L106.281,89.3a1.747,1.747,0,0,0-2.107.281L89.622,104.128a1.748,1.748,0,0,0-.282,2.106l5.581,9.756a59.661,59.661,0,0,1-15.991,6.642l-2.952-10.851a1.749,1.749,0,0,0-1.688-1.291H53.71a1.75,1.75,0,0,0-1.689,1.291L49.07,122.632a59.678,59.678,0,0,1-15.953-6.618l5.568-9.728a1.748,1.748,0,0,0-.282-2.106L23.851,89.627a1.748,1.748,0,0,0-2.106-.281l-9.737,5.573A59.665,59.665,0,0,1,5.367,78.927l10.85-2.951a1.75,1.75,0,0,0,1.29-1.689V53.707a1.749,1.749,0,0,0-1.29-1.688L5.368,49.068a59.882,59.882,0,0,1,6.644-15.992l9.75,5.579a1.746,1.746,0,0,0,2.106-.281L38.42,23.822a1.748,1.748,0,0,0,.282-2.106l-5.574-9.738A59.864,59.864,0,0,1,49.07,5.368L52.021,16.21A1.75,1.75,0,0,0,53.71,17.5H74.29a1.748,1.748,0,0,0,1.688-1.29L78.93,5.368A59.845,59.845,0,0,1,94.91,12l-5.587,9.766a1.748,1.748,0,0,0,.282,2.106l14.552,14.552a1.75,1.75,0,0,0,2.107.282l9.756-5.58a59.927,59.927,0,0,1,6.612,15.939l-10.844,2.953a1.75,1.75,0,0,0-1.291,1.688v20.58a1.751,1.751,0,0,0,1.291,1.689l10.845,2.951A59.679,59.679,0,0,1,116.023,94.868Z"></path>
            <path d="M64,25a39,39,0,1,0,39,39A39.044,39.044,0,0,0,64,25Zm0,74.5A35.5,35.5,0,1,1,99.5,64,35.54,35.54,0,0,1,64,99.5Z"></path>
            <path d="M65.237,41.142a1.748,1.748,0,0,0-2.474,0L47.914,55.99a12.243,12.243,0,0,0,9.319,20.887A24.754,24.754,0,0,1,54.072,84.7a1.749,1.749,0,0,0,1.485,2.676H72.443A1.749,1.749,0,0,0,73.928,84.7a24.754,24.754,0,0,1-3.161-7.818A12.243,12.243,0,0,0,80.086,55.99Zm12.375,29.7a8.786,8.786,0,0,1-8.51,2.243,1.749,1.749,0,0,0-2.2,1.895,28.486,28.486,0,0,0,2.588,8.893H58.51A28.486,28.486,0,0,0,61.1,74.978a1.75,1.75,0,0,0-2.2-1.895,8.746,8.746,0,0,1-8.509-14.618L64,44.853,77.612,58.465A8.762,8.762,0,0,1,77.612,70.84Z"></path>
            </g>
        </svg>