<svg xmlns="http://www.w3.org/2000/svg" width="252" height="66" fill="none"><path fill="#722328" d="M25.96 40.2l-10.65 5.61v12.65l10.65-5.61V40.2z"/><path fill="#8F2328" d="M36.6 45.81L25.96 40.2v12.65l10.64 5.61V45.81zM24 23.54a20.001 20.001 0 0 1-5 6.27c-2.82 2.19-6.87 3.19-6.8 2.9.07-.29-.26-1.63-2.35-2.71S9 27.55 8.9 26.08c-.1-1.47-1.11-2-3.36-2.84C3.29 22.4 3 21.45 4.1 19.33s.69-2.81.29-3.39c-.4-.58-1.13-.72-.91-.72.22 0 5.31.33 8.05 1.89A28.858 28.858 0 0 0 19.8 20c2.74.67 4.2 3.54 4.2 3.54z"/><path fill="#A9272C" d="M8.22 22.93c1.17 0 2.41-.69 3.52.07.16.13.36.29.26.55-.13.23-.34.405-.59.49a12.47 12.47 0 0 0-2.87.9c-.48-.7-1.46-1.14-3-1.7a6.241 6.241 0 0 1-1.07-.49c1.238.215 2.497.276 3.75.18zM11 29a24.725 24.725 0 0 0 3.79-1 3.86 3.86 0 0 1 2-.23.56.56 0 0 1 .2.75c-.75.95-2 1-3.1 1.4-.82.33-1.57.69-2.42.95l-.19.05A6.111 6.111 0 0 0 9.85 30a2.62 2.62 0 0 1-.93-.73 8.66 8.66 0 0 0 1-.14c.36-.03.68-.06 1.08-.13z"/><path fill="#9F5E3C" d="M31.28 0c.27-.05.2.32.41 1.47.229 1.06.52 2.104.87 3.13l-2.39-.82A5.44 5.44 0 0 1 31.28 0z"/><path fill="#F1D0AF" d="M29.22 2a4.84 4.84 0 0 1 2-2h.05a5.44 5.44 0 0 0-1.11 3.78l-1.44-.48c-.06 0-.04-.19.5-1.3zM18.06 1.37a7.87 7.87 0 0 1 4.18 2.13s-.2 0-1.59.88l-.18.12a14.79 14.79 0 0 0-6.26-3.44c.08-.18 1.02-.36 3.85.31z"/><path fill="#9F5E3C" d="M20.47 4.51a13.639 13.639 0 0 0-2.69 3.36 16.446 16.446 0 0 1-2.41-3.44 11.838 11.838 0 0 1-1.15-3.33 14.79 14.79 0 0 1 6.25 3.41z"/><path fill="#D39D7B" d="M22 36.63c-.13.1-3.43 4.37-6.59 6.1-3.16 1.73-9 2.12-11.36-1.11-2.36-3.23-1.05-5.45.15-5.91 1.2-.46 4.08 0 3.95-2-.13-2-3.72-2.6-6.15-.71-2.43 1.89-2.9 7-.39 10s9.6 3.52 13.74 1.66a23.39 23.39 0 0 0 6.46-4.18l.19-3.85z"/><path fill="#F1D0AF" d="M2 33c2-1.62 5-1.37 5.85 0a2.77 2.77 0 0 1-.85.36c-1.27.29-2.55.13-3.69.65a5.669 5.669 0 0 0-3.02 3.12 9.169 9.169 0 0 0-.29 1A6.6 6.6 0 0 1 2 33zM18 42.35a6.87 6.87 0 0 1-5.16 2.48c-3.26.06-7.7.39-9.43-3a5.18 5.18 0 0 1-.59-1.31 3 3 0 0 1 0-1.4 7 7 0 0 0 1.2 2.49c2.32 3.23 8.19 2.84 11.36 1.11a16.64 16.64 0 0 0 3.26-2.49 3 3 0 0 1-.64 2.12z"/><path fill="#D39D7B" d="M31.62 41.55c.271-.154.529-.332.77-.53-1.07 2-4.31 11.42-4.1 11.57.21.15 1.33-.22 2.24 0 .91.22 1.59 1.28.91 1.81s-4.18.28-4.79.26c-.61-.02-.78-.3-.46-1.2.32-.9 1.45-10.34 1.46-10.46H26a9.36 9.36 0 0 0 5.62-1.45z"/><path fill="url(#paint0_radial)" d="M31.42 53.32c-.29.33-.62-.2-.91-.36a2.368 2.368 0 0 0-.82-.13c.33.16.69.59.42.85a2.31 2.31 0 0 1-2.94 0c-.2-.2 0-.55.23-.69.286-.15.58-.283.88-.4.22.15 1.33-.22 2.24 0 .378.103.713.328.95.64l-.05.09z"/><path fill="#A9272C" d="M21.92 35a7.65 7.65 0 0 0 3.33 1c3 .29 6.23.52 9-1.18l.13-.09a23.68 23.68 0 0 1-.86 3.66A15.536 15.536 0 0 1 32.39 41a5.476 5.476 0 0 1-.77.53A9.36 9.36 0 0 1 26 43h-.65a5.811 5.811 0 0 0-.81-2 3.06 3.06 0 0 0-3.14-1.6 1.21 1.21 0 0 0-.49.28c.07-1 .16-2 .28-2.8.15-1 .29-1.73.4-2.28a.9.9 0 0 0 .33.4z"/><path fill="#CD3334" d="M31.65 37.78A3.32 3.32 0 0 1 26.76 39c-.23-.2-.39-.42-.65-.62 0 0-.07-.13-.1-.13a5.871 5.871 0 0 1-1.68-2.4c.307.06.618.104.93.13 2.48.24 5.06.44 7.44-.42-.13.495-.303.977-.52 1.44a6.506 6.506 0 0 0-.53.78z"/><path fill="#F1D0AF" d="M22.18 29.09v-1.7a18.92 18.92 0 0 1 5.77-8.63c2.59-.14 4.93-.24 4.93-.24s0 .13.07.14l.05.14h-.2c.47 1 .84 2.46 1.27 3.62.1.77.32 2.46.37 3.83v1.58c.27 4 .36 3.32 0 5.91-.025.335-.068.67-.13 1l-.13.09c-2.77 1.7-6 1.47-9 1.17a7.65 7.65 0 0 1-3.33-1 .9.9 0 0 1-.33-.35c.09-.46.17-.78.22-1l.44-4.56z"/><path fill="#D39D7B" d="M13 25.56c1.13-3.77 6.56-5.86 8.29-6.25.89-.2 3.9-.4 6.63-.55a18.92 18.92 0 0 0-5.77 8.63v-.18c-.06-1.34-.33-3.88-.33-3.88s-4.78 1-6.22 3.17c-1.44 2.17.21 4.62 1.83 5.38a4.529 4.529 0 0 0 3.82-.37c.11-.15 0-.42 0-1.11 0-.69.85-1 .85-1s.6-.44.95.05c.22 0 .39.88.39.88.268.074.52.2.74.37.57.72-.36 1.14-.36 1.14a.62.62 0 0 1 .59.95c-.33.52-1.13.64-2 .69h-.62c-1.27.028-2.54-.069-3.79-.29-2.78-.48-6.1-3.86-5-7.63zM33.45 29.53a2.379 2.379 0 0 0 0-.74c.6-.57 1-.32 1-.32a1.6 1.6 0 0 1 1.17.95c.23.77-.55 1.93 0 2.09.55.16 2.14-.54 2.71-3a4.86 4.86 0 0 0-1.94-5.27 5.07 5.07 0 0 0-2.31-.81L34 22c-.41-1.11-.62-2.18-1-3.17.92.19 3.74.87 5.18 2.78a8.8 8.8 0 0 1 .91 8.49c-1.24 2.48-2.87 2.81-3.62 2.9a4.997 4.997 0 0 0-.91.16s-.8-.1-.8 0c-.57-.28-.47-.38-.78-.79a.82.82 0 0 1 .26-1.23s-.54-.74-.39-1c.15-.26.38-.39.6-.61z"/><path fill="#F1D0AF" d="M34 22l.06.41c-.43-1.16-.81-2.58-1.27-3.62h.2c.42 1 .63 2.06 1 3.17L34 22zM34.46 31.19c-.39-.49-1.47-.65-1.08-1.37.29-.52 1-.16 1.44-.06-.33-.33-1.08-.78-.62-1.18a.729.729 0 0 1 .28-.16c.397.093.75.318 1 .64.032.27.032.54 0 .81-.133.479-.2.973-.2 1.47.13.88-.91 1.08-1.57.85a.622.622 0 0 1-.39-.88.789.789 0 0 1 1.14-.12zM21.32 30.39c0-.68.85-1 .85-1v-.08a.85.85 0 0 1 .64.23c.26.29-.07.72-.26 1 .52-.13 1.24-.29 1.53.23.29.52-.33.72-.69.95.39 0 1.18.33.69.72a2 2 0 0 1-1.16.36.751.751 0 0 1-.21-.16 10.356 10.356 0 0 1-1.39-1.5c-.017-.25-.017-.5 0-.75z"/><path fill="url(#paint1_radial)" d="M24.44 32.46a1.1 1.1 0 0 0-.22-.43.8.8 0 0 0 .38-.46 1.12 1.12 0 0 0-.84-1.38 1.18 1.18 0 0 0-.19-.55 9 9 0 0 1 2.13-5.44l.2-.2c.174.15.362.284.56.4 1.11.62 2.55 1.08 3.69.26.418-.337.716-.8.85-1.32a4.66 4.66 0 0 1 2.29 2 5.64 5.64 0 0 1 .75 2.9 1.07 1.07 0 0 0-.59.36.94.94 0 0 0-.25.9.94.94 0 0 0-.47 1.12c.08.17.14.36.23.54-.64.41-.54 1.49-.13 2.1.2.281.478.497.8.62-.133.443-.31.872-.53 1.28l-.2.36c-2.44 1-5.11.76-7.67.51l-.6-.07a5.45 5.45 0 0 1-.93-2l.13-.07a1.23 1.23 0 0 0 .61-1.43z"/><path fill="#F1D0AF" d="M34.62 20a.53.53 0 0 1-.26-.52 1 1 0 0 1 .09-.29 7.7 7.7 0 0 1 3.72 2.39 7.93 7.93 0 0 1 1.24 2.56A23.544 23.544 0 0 0 37.92 22c-.85-1.06-2.12-1.38-3.3-2z"/><path fill="#F1D0AF" d="M38.36 28.47a5.17 5.17 0 0 0-.08-2.78 3.35 3.35 0 0 1 .72 3c-.36 1.4-.88 2.9-2.25 3.52a.76.76 0 0 1-1-.16 1.699 1.699 0 0 1-.2-.6.28.28 0 0 0 .12.07c.53.15 2.11-.52 2.69-3.05zM17.45 31.88a4.54 4.54 0 0 0 3.81-.37c.142.237.202.515.17.79a6.37 6.37 0 0 1-3.75.29 2.93 2.93 0 0 1-2.19-2.19 7.208 7.208 0 0 1-.19-.92 4.51 4.51 0 0 0 2.15 2.4z" opacity=".34"/><path fill="#F1D0AF" d="M13 25.56c.6-2 2.42-3.54 4.25-4.59.358.087.681.279.93.55.26.33.39.85.07 1.11-2.19 1.57-4.41 2.94-5 5.78a.39.39 0 0 1-.22.28 5.27 5.27 0 0 1-.03-3.13zM24.47 41c.393.61.667 1.289.81 2-.08.35 0 9.61 0 9.61a1.23 1.23 0 0 1 .28 1.15c-.11.85 0 1-1.33 1s-3.59.1-3.61-.12c-.02-.22.09-2 .74-2.12.65-.12.77.17.77.17a1 1 0 0 1 .4-.58c.31-.17.39-.14.39-.14s-2.17-10-2-12.36a1.21 1.21 0 0 1 .49-.28A3.06 3.06 0 0 1 24.47 41z"/><path fill="url(#paint2_radial)" d="M21.35 52.59c.65-.11.77.17.77.17a1 1 0 0 1 .4-.58c.31-.17.39-.14.39-.14h.14c.39.1.95.29.85.78a1.06 1.06 0 0 1 1.37-.19 1.14 1.14 0 0 1 .3 1 .59.59 0 0 1-.28.13c-.42.13-.85-.26-1.21-.33s-.82.46-1.34.39a.83.83 0 0 1-.72-.65 1 1 0 0 1-1 .42h-.24c.07-.5.22-.95.57-1z"/><path fill="#CD3334" d="M33.36 18.38a4.401 4.401 0 0 1-1.65 3.48c-1.68 1.22-5.11 1.61-8.12.59-3.01-1.02-4.92-2-7.66-2.33-2.74-.33-5.66-2.89-8.18-3.61-2.52-.72-6.61-1.07-6.44-1.18A11.76 11.76 0 0 1 6.55 15a36.998 36.998 0 0 1 8.64 2.68 9.24 9.24 0 0 0 4.61.89l13.56-.19z"/><path fill="#D4B53F" d="M30.88 20.51a3.24 3.24 0 0 1-.17 3.55c-1.31 1.54-4.55.46-4.72-1.28-.17-1.74.46-2 .52-2s4.37-.27 4.37-.27z"/><path fill="#E2DE3A" d="M26.85 22a7.75 7.75 0 0 0 4.32-.73 3.27 3.27 0 0 1 .06 1.83 2.14 2.14 0 0 1-1.12 1.09 2.46 2.46 0 0 1-2.9-.82 3.38 3.38 0 0 1-.46-1.37h.1z"/><path fill="url(#paint3_radial)" d="M33.36 4.83c-1-.94-4.33-3.12-7.62-2.93a10.54 10.54 0 0 0-7.88 4.54A9.691 9.691 0 0 0 16 14.85c.83 3.4 3.94 6.08 8.75 6.66A11.31 11.31 0 0 0 36 16.4c2.18-3.57.37-7.48-.39-8.92a10.28 10.28 0 0 0-2.25-2.65z"/><path fill="#F1D0AF" d="M31 3.94c-.16.49-.75.69-1.24.75a11.55 11.55 0 0 1-6.56-1 2.09 2.09 0 0 1-.89-1 9.75 9.75 0 0 1 3.43-.85A10.39 10.39 0 0 1 31 3.26a1.1 1.1 0 0 1 0 .68z"/><path fill="#F3DCA8" d="M34.49 13.45a.2.2 0 0 1-.17 0h.17z"/><path fill="#F1D0AF" d="M31.56 14.81a4.07 4.07 0 0 1 2.64.13c.1 0 .26.16.16.33v.07c-1.1.1-2.26.48-3.29 0-.26-.11.23-.47.49-.53zM32.14 11.41a2.83 2.83 0 0 1 3.1 1.37c.13.36-.2.52-.49.62-.09.011-.18.011-.27 0 .09 0 .17-.11.27-.14-.1 0-.18.11-.27.14h-.18a4.23 4.23 0 0 0-3 0c-.62.2-1.76.29-1.86-.39-.23-1.17 1.63-1.43 2.7-1.6z"/><path fill="#CD3334" d="M33.36 4.47c-.07-.06-.2-.27-.53.25s-.89 1.35-3.85.37c-2.96-.98-8.44-1.46-10.27.24a9.13 9.13 0 0 0-2.87 4.4c-.41 1.37-.65 3.44 0 3.72.65.28 5.07 1.74 8.55.52 3.48-1.22 6.48-3.26 8.16-3.31 1.68-.05 4.08 1 4.35.38.27-.62-.53-3.95-3.54-6.57z"/><path fill="#A9272C" d="M34.3 6.45c-.13.13-.36.1-.52.2a.1.1 0 0 0 0 .05c-.099.03-.196.067-.29.11a.88.88 0 0 0-.46.91c.17.446.436.849.78 1.18.1.13.07.33-.06.29a7.25 7.25 0 0 0-2.9.13c.07-.69 1.17-.29 1.6-.75a.21.21 0 0 0-.1-.26 4.8 4.8 0 0 0-3.3.85c-1 .52-1.8 1.57-3 1.34a.67.67 0 0 1-.31-.13 3.76 3.76 0 0 0-.63-2.58c-.72-.91-2-.82-3-.75-.29 0-.23-.23-.16-.42a1.39 1.39 0 0 1 1-.72c2.84-.69 5.45 0 8.22.69A2.31 2.31 0 0 0 33.29 6a.74.74 0 0 1 .95 0c.09.16.22.35.06.45z"/><path fill="#8F2328" d="M30.19 10.89c1.63-1 3.46-.72 5.22-.29a2.64 2.64 0 0 0 1.54.06 1 1 0 0 1 0 .39c-.27.67-2.67-.43-4.35-.38-1.68.05-4.73 2.08-8.21 3.33-3.48 1.25-7.9-.24-8.55-.52a.61.61 0 0 1-.3-.39c.887.367 1.818.62 2.77.75a17.35 17.35 0 0 0 11.88-2.95z"/><path fill="#401B14" d="M33.1 12.68c.89.1 1.94-1 1-1.22-.94-.22-2 .07-2.07.39-.07.32.13.72 1.07.83z"/><path fill="url(#paint4_radial)" d="M24.91 11.96c1.48 0 2.68-1.236 2.68-2.76 0-1.524-1.2-2.76-2.68-2.76-1.48 0-2.68 1.236-2.68 2.76 0 1.524 1.2 2.76 2.68 2.76z"/><path fill="#401B14" d="M24.607 9.861c.365-.16.5-.653.304-1.104-.197-.45-.652-.686-1.016-.527-.365.16-.5.653-.304 1.104.197.45.652.686 1.016.527z"/><path fill="url(#paint5_radial)" d="M34.995 9.334c.62-.393.734-1.328.253-2.089-.481-.76-1.374-1.06-1.995-.667S32.519 7.906 33 8.667c.48.76 1.374 1.06 1.995.667z"/><path fill="#401B14" d="M34.255 8.817c.155-.157.081-.483-.166-.728s-.573-.316-.73-.16c-.155.158-.08.484.167.729s.573.316.729.16zM27.47 13.33c0-.07.1 0 .12 0 .04.141.1.276.18.4.06.09.22.07.31.09.36.063.725.094 1.09.09H33.64c.365-.001.73-.035 1.09-.1.159-.02.312-.07.45-.15.13-.09 0-.28 0-.41 0-.13.08-.05.09 0 .01.05.15.25.09.41a.44.44 0 0 1-.26.25 3.55 3.55 0 0 1-1.15.22c-.84.08-1.7.06-2.55.06h-2.63a4.12 4.12 0 0 1-1.13-.14.46.46 0 0 1-.3-.32 1 1 0 0 1 .13-.4z"/><path fill="#763421" d="M22.61 29.08a1 1 0 0 1 .61.17c.177.177.287.41.31.66a.76.76 0 0 1 0 .36h.07a.87.87 0 0 1 .84.31.94.94 0 0 1 0 .87.86.86 0 0 1-.25.31.71.71 0 0 1 .27 1.16 1.64 1.64 0 0 1-.79.41c-.375.096-.764.13-1.15.1v-.05A3.59 3.59 0 0 0 24.1 33a.66.66 0 0 0 .37-.63.49.49 0 0 0-.46-.45.07.07 0 0 1-.05-.05h-.19a1 1 0 0 1 .27-.16c.11-.05.18-.18.26-.27a.53.53 0 0 0 0-.79.91.91 0 0 0-.8-.17l-.3.08c-.08 0-.14.07-.21.09a.08.08 0 0 1 0-.08.31.31 0 0 1 .22-.16l.25-.07a1 1 0 0 0-.23-.92.87.87 0 0 0-.8-.11h-.07c-.1-.22.14-.22.25-.23zM33.6 19.63c.164.447.297.905.4 1.37.06.22.09.45.14.67.05.22.1.27 0 .35a.081.081 0 0 1-.06.027.08.08 0 0 1-.06-.027 1.495 1.495 0 0 1-.07-.33c0-.21-.07-.43-.12-.64-.12-.46-.22-.93-.34-1.39.05-.05.1-.06.11-.03zM21.8 23.32c.128-.032.258-.052.39-.06.296-.02.594-.02.89 0v.05c-.23 0-.47.06-.7.09l-.4.06h-.14s-.07.05 0 0a.06.06 0 0 1-.08 0c-.11-.04-.01-.12.04-.14zM30.14 53.27a1.493 1.493 0 0 1-.25-.31c.156.126.3.267.43.42.101.16.16.342.17.53 0 .3-.07.85-.46.87-.08 0-.14-.12 0-.15.35-.13.39-.53.34-.86a.89.89 0 0 0-.23-.5z"/><path fill="#fff" d="M24.5 6.85h.11a.49.49 0 0 1 .39.05.43.43 0 0 1 .16.35.41.41 0 0 1-.22.34.39.39 0 0 1-.31 0h-.1a.41.41 0 0 1-.34-.3.43.43 0 0 1 .31-.44z"/><path fill="#A9272C" d="M25.96 64.06l10.64-5.6V45.81l-10.64 5.6v12.65z"/><path fill="#8F2328" d="M15.31 58.46l10.65 5.6V51.41l-10.65-5.6v12.65z"/><path fill="#CD3334" d="M25.96 51.41l10.64-5.6 4.21 5.6-10.64 5.61-4.21-5.61z"/><path fill="#A9272C" d="M25.96 51.41l-10.65-5.6-4.21 5.6 10.65 5.61 4.21-5.61z"/><path fill="#CD3334" d="M66.43 25.87a39.915 39.915 0 0 0-4.21.53 39.7 39.7 0 0 1-4.21.53 6.36 6.36 0 0 1-4-1.16 4.4 4.4 0 0 1-1.71-3.16c-.38-3.373 1.187-7.243 4.7-11.61 3.513-4.367 7-6.753 10.46-7.16 3.247-.187 5.4 1.92 6.46 6.32.264 1.181.46 2.377.59 3.58-.307.093-.863.293-1.67.6a97.43 97.43 0 0 1-2 .74l-3.7 1.3c-.347-1.427-.97-2.14-1.87-2.14a4.39 4.39 0 0 0-3.13 1.53 2.74 2.74 0 0 0-.85 3.11c.24.56.977.84 2.21.84 1.102-.046 2.2-.156 3.29-.33a28.71 28.71 0 0 1 3.21-.31 7.88 7.88 0 0 1 4.4 1 5.26 5.26 0 0 1 2.07 3.3 9 9 0 0 1-1 6.27A18.08 18.08 0 0 1 68 37.07a11.13 11.13 0 0 1-5.74 1.63 14.21 14.21 0 0 1-5.75-1.35c.473-1.92 1.237-4.587 2.29-8a8.66 8.66 0 0 0 3.88 1 10 10 0 0 0 4.28-1c1.473-.667 2.113-1.417 1.92-2.25-.193-.833-1.01-1.243-2.45-1.23zM81.05 5.75l8.7-1.49a173.086 173.086 0 0 0-.28 21.33l4.61-1.81-.66-18 8.7-1.49a190.398 190.398 0 0 0 .5 31.56l-8 2-.13-5-12.24 5-1.2-32.1zM119.86 3.56a12.32 12.32 0 0 1 5.6 1 4.525 4.525 0 0 1 2.48 3.18c1.267 5.7-2.913 11.617-12.54 17.75.14 3.873.387 7.297.74 10.27l-7.93 2c-.107-1.333-.18-3.363-.22-6.09L107.73 21c-.333-9.913-.603-15.01-.81-15.29a49.336 49.336 0 0 1 12.94-2.15zm.81 9.43c-.127-.527-.643-.79-1.55-.79-1.284.102-2.552.35-3.78.74V18c2.887-1.333 4.647-2.803 5.28-4.41a.9.9 0 0 0 .05-.59v-.01zM138.67 12.48a52.508 52.508 0 0 0-.13 2.6l.05 2.46 8.09-1.54 1 6.27c-4.287.667-7.323 1.193-9.11 1.58 0 .4.02 1.003.06 1.81l.1 1.77 9.53-1.21 1.39 8.46A123.419 123.419 0 0 0 131 37.81l-1.5-32.53 17.15-2.18 1.35 8.41c-3.453.28-6.563.603-9.33.97zM165.92 3.56a12.5 12.5 0 0 1 5.62 1A4.523 4.523 0 0 1 174 7.79c.947 4.087-1.053 8.193-6 12.32.667 1.053 3.583 4.677 8.75 10.87l-3.23 3-3.52 3.37-8.66-12.5h-.05c.08 3.933.31 7.6.69 11l-7.87 2c-.06-.4-.147-2.4-.26-6l-1-26.07a50.185 50.185 0 0 1 13.07-2.22zm.48 9.62c-.167-.667-.757-1-1.77-1a11.935 11.935 0 0 0-3.41.7l-.07 3.07V19a13.752 13.752 0 0 0 3.27-2.3 6.004 6.004 0 0 0 1.9-2.81c.085-.226.109-.471.07-.71h.01z"/><path fill="#262424" d="M185.92 26.19a6.254 6.254 0 0 0 1.92 3.23 5.12 5.12 0 0 0 3.58 1.32c1.807 0 3.44-1.177 4.9-3.53l3 5.44c-2.667 3.333-5.83 5-9.49 5s-6.737-1.667-9.23-5a17.168 17.168 0 0 1-3.09-6.51 20.64 20.64 0 0 1-.59-5.58 21.126 21.126 0 0 1 3.42-11c2.607-4 5.99-6 10.15-6 3.687 0 6.81 1.703 9.37 5.11l-4.67 5.62a5 5 0 0 0-3-1.07c-1.88 0-3.5 1.38-4.86 4.14a14.507 14.507 0 0 0-1.68 6.32c-.03.845.061 1.69.27 2.51zM200.3 38.37A215.707 215.707 0 0 0 205 5.56l15.55-2.32c.347 9.08 2.13 19.923 5.35 32.53L215.18 38l-.55-5.67-3.43.6-.13 4-10.77 1.44zM214 26.24l-1.72-17.15h-.05l-.7 17.57 2.47-.42zM247.14 3.84l1.76 8.41c-2.967.153-5.28.307-6.94.46-.323 7.71-.038 15.434.85 23.1l-8.47 2-.95-24.17c-.32 0-.783.063-1.39.19l-1.38.23-2.71.46-2.7-8.52 21.93-2.16z"/><path fill="#818385" d="M60.79 58.29a3.24 3.24 0 0 0 1 1.68 2.66 2.66 0 0 0 1.85.69 3.14 3.14 0 0 0 2.54-1.83l1.58 2.82a6.12 6.12 0 0 1-4.92 2.58A5.761 5.761 0 0 1 58 61.64a8.911 8.911 0 0 1-1.6-3.38 10.66 10.66 0 0 1-.3-2.89 11 11 0 0 1 1.77-5.71 6.08 6.08 0 0 1 5.27-3.13A5.91 5.91 0 0 1 68 49.18l-2.37 2.92a2.61 2.61 0 0 0-1.57-.56c-.973 0-1.813.717-2.52 2.15a7.53 7.53 0 0 0-.88 3.31c-.017.434.027.868.13 1.29zM92 64.61a111.856 111.856 0 0 0 2.42-17l8.07-1.21a82.423 82.423 0 0 0 2.78 16.88l-5.55 1.16-.29-2.94-1.78.31-.07 2-5.58.8zm7.1-6.29l-.88-8.9-.36 9.11 1.24-.21zM136.8 58.12c-.734.054-1.465.148-2.19.28-.721.132-1.449.225-2.18.28a3.299 3.299 0 0 1-2.07-.6 2.297 2.297 0 0 1-.89-1.64c-.2-1.753.617-3.77 2.45-6.05 1.833-2.28 3.64-3.51 5.42-3.69 1.687-.1 2.803.993 3.35 3.28.138.614.242 1.235.31 1.86l-.87.31-1 .39-1.92.68c-.18-.74-.513-1.11-1-1.11a2.284 2.284 0 0 0-1.62.8 1.42 1.42 0 0 0-.44 1.62c.127.287.51.43 1.15.43.569-.023 1.137-.08 1.7-.17a15.054 15.054 0 0 1 1.68-.17 4.091 4.091 0 0 1 2.28.53c.549.415.92 1.023 1.04 1.7a4.668 4.668 0 0 1-.54 3.25 9.376 9.376 0 0 1-3.86 3.83c-.904.55-1.942.84-3 .84a7.372 7.372 0 0 1-3-.7c.247-1 .643-2.39 1.19-4.17.616.33 1.301.511 2 .53a5.2 5.2 0 0 0 2.22-.54c.767-.36 1.1-.75 1-1.17-.1-.42-.503-.62-1.21-.6zM168.54 47.68l4.54-.77a94.213 94.213 0 0 0 .21 16.37l-4.14 1-.61-16.6zM204.94 49c.513 2.14 1.05 4.02 1.61 5.64.237.768.548 1.512.93 2.22l-.32-9.16 4.54-.77a94.114 94.114 0 0 0 .21 16.37l-4.08 1-.56-.82L205 60c-.447-.667-.673-1.027-.68-1.08.053 1.627.187 3.427.4 5.4l-4.12 1.13-.64-17.72 4.56-.82c.1.647.24 1.343.42 2.09zM245.09 45.87a5.65 5.65 0 0 1 4.78 2.8 9.492 9.492 0 0 1 1.4 3.13c.277 1.175.371 2.386.28 3.59a12.466 12.466 0 0 1-2.05 6.08 6.527 6.527 0 0 1-5.63 3.38 5.662 5.662 0 0 1-4.87-2.77 9.399 9.399 0 0 1-1.32-3.08 12.17 12.17 0 0 1-.28-3.62c.121-2.174.81-4.277 2-6.1 1.507-2.273 3.403-3.41 5.69-3.41zm-3 12.78a2.903 2.903 0 0 0 1 1.62 2.82 2.82 0 0 0 1.84.63 2.636 2.636 0 0 0 2.33-1.23 5.42 5.42 0 0 0 .89-2.77 8.182 8.182 0 0 0-.61-3.47c-.493-1.127-1.16-1.69-2-1.69a2.355 2.355 0 0 0-1.81 1 6.998 6.998 0 0 0-1.24 2.21c-.252.7-.417 1.43-.49 2.17a5.072 5.072 0 0 0 .09 1.53z"/><defs><radialGradient id="paint0_radial" cx="0" cy="0" r="1" gradientTransform="matrix(-1.66 0 0 -1.66 29.28 53.37)" gradientUnits="userSpaceOnUse"><stop offset=".66" stop-color="#fff"/><stop offset="1" stop-color="#F1D0AF"/></radialGradient><radialGradient id="paint1_radial" cx="0" cy="0" r="1" gradientTransform="matrix(-61.463 0 0 -92.4496 -397.918 490.737)" gradientUnits="userSpaceOnUse"><stop offset=".66" stop-color="#fff"/><stop offset="1" stop-color="#F1D0AF"/></radialGradient><radialGradient id="paint2_radial" cx="0" cy="0" r="1" gradientTransform="matrix(8.80098 0 0 3.27282 252.78 146.717)" gradientUnits="userSpaceOnUse"><stop offset=".66" stop-color="#fff"/><stop offset="1" stop-color="#F1D0AF"/></radialGradient><radialGradient id="paint3_radial" cx="0" cy="0" r="1" gradientTransform="rotate(180 12.45 6.21) scale(13.23)" gradientUnits="userSpaceOnUse"><stop offset=".49" stop-color="#fff"/><stop offset=".79" stop-color="#F1D0AF"/><stop offset="1" stop-color="#D49D7B"/></radialGradient><radialGradient id="paint4_radial" cx="0" cy="0" r="1" gradientTransform="matrix(14.5792 0 0 15.0144 271.363 57.224)" gradientUnits="userSpaceOnUse"><stop offset=".66" stop-color="#fff"/><stop offset="1" stop-color="#F1D0AF"/></radialGradient><radialGradient id="paint5_radial" cx="0" cy="0" r="1" gradientTransform="matrix(-3.97005 .0246 -.03015 -4.86556 -60.55 33.15)" gradientUnits="userSpaceOnUse"><stop offset=".66" stop-color="#fff"/><stop offset="1" stop-color="#F1D0AF"/></radialGradient></defs></svg>